<svg xmlns="http://www.w3.org/2000/svg" fill="none" viewBox="0 0 24 24" id="addwhatsappstatus"><path fill="#ffffff" fill-rule="evenodd" d="M12 3.75C7.44367 3.75 3.75002 7.44365 3.75002 12C3.75002 13.6246 4.21885 15.1374 5.0283 16.4132C5.1491 16.6036 5.17783 16.8383 5.10652 17.0522L4.18587 19.8141L6.94782 18.8935C7.16174 18.8222 7.39639 18.8509 7.58679 18.9717C8.86259 19.7812 10.3754 20.25 12 20.25C13.365 20.25 14.6505 19.9191 15.7828 19.3338C16.1508 19.1435 16.6033 19.2876 16.7935 19.6556C16.9837 20.0235 16.8396 20.476 16.4716 20.6662C15.1314 21.3591 13.6103 21.75 12 21.75C10.2118 21.75 8.53426 21.268 7.09231 20.4265L3.23719 21.7115C2.96769 21.8013 2.67056 21.7312 2.46969 21.5303C2.26882 21.3295 2.19867 21.0323 2.28851 20.7628L3.57355 16.9077C2.73207 15.4658 2.25002 13.7882 2.25002 12C2.25002 6.61522 6.61524 2.25 12 2.25C17.3848 2.25 21.75 6.61522 21.75 12C21.75 13.5552 21.3853 15.0274 20.7361 16.3338C20.5518 16.7047 20.1017 16.856 19.7307 16.6716C19.3598 16.4873 19.2085 16.0372 19.3929 15.6662C19.9413 14.5627 20.25 13.3185 20.25 12C20.25 7.44365 16.5564 3.75 12 3.75Z" clip-rule="evenodd" class="color000000 svgShape"></path><path fill="#ffffff" fill-rule="evenodd" d="M11.3543 7.79865C11.7638 7.73605 12.045 7.35337 11.9824 6.94392 11.9198 6.53446 11.5371 6.25328 11.1276 6.31588 10.1608 6.4637 9.21866 6.86052 8.40265 7.51535 7.58663 8.17017 6.99519 9.00395 6.64147 9.91587 6.49167 10.302 6.6833 10.7365 7.06948 10.8863 7.45566 11.0361 7.89015 10.8445 8.03994 10.4583 8.30084 9.78573 8.73662 9.1706 9.34145 8.68524 9.94628 8.19989 10.6412 7.90768 11.3543 7.79865zM17.3613 14.084C17.5111 13.6978 17.3195 13.2634 16.9333 13.1136 16.5471 12.9638 16.1126 13.1554 15.9628 13.5416 15.7019 14.2142 15.2661 14.8293 14.6613 15.3147 14.0565 15.8 13.3616 16.0922 12.6484 16.2012 12.239 16.2638 11.9578 16.6465 12.0204 17.056 12.083 17.4654 12.4657 17.7466 12.8751 17.684 13.842 17.5362 14.7841 17.1394 15.6001 16.4845 16.4161 15.8297 17.0076 14.9959 17.3613 14.084zM7.80008 12.647C7.73748 12.2375 7.35481 11.9564 6.94535 12.019 6.53589 12.0816 6.25471 12.4642 6.31731 12.8737 6.46514 13.8406 6.86196 14.7827 7.51678 15.5987 8.17161 16.4147 9.00539 17.0061 9.9173 17.3599 10.3035 17.5097 10.738 17.318 10.8878 16.9319 11.0376 16.5457 10.8459 16.1112 10.4598 15.9614 9.78717 15.7005 9.17204 15.2647 8.68668 14.6599 8.20132 14.055 7.90911 13.3601 7.80008 12.647zM15 5.75C15.4142 5.75 15.75 6.08579 15.75 6.5V11.5C15.75 11.9142 15.4142 12.25 15 12.25 14.5858 12.25 14.25 11.9142 14.25 11.5V6.5C14.25 6.08579 14.5858 5.75 15 5.75z" clip-rule="evenodd" class="color000000 svgShape"></path><path fill="#ffffff" fill-rule="evenodd" d="M11.75 9C11.75 8.58579 12.0858 8.25 12.5 8.25H17.5C17.9142 8.25 18.25 8.58579 18.25 9C18.25 9.41421 17.9142 9.75 17.5 9.75H12.5C12.0858 9.75 11.75 9.41421 11.75 9Z" clip-rule="evenodd" class="color000000 svgShape"></path></svg>